# xmcd
#
# Track frame offsets: 
#        150
#        13829
#        27506
#        41217
#        52439
#        70776
#        83431
#        98235
#        110139
#        122533
#        134035
#        146966
#        159342
#        173750
#        183793
#        199598
#        212481
#        225466
#        238625
#        253353
#        265995
#
# Disc length: 3698 seconds
#
# Revision: 2
# Processed by: cddbd v1.5.2PL0 Copyright (c) Steve Scherf et al.
# Submitted via: ExactAudioCopyFreeDBPlugin 1.0
#
DISCID=360e7015
DTITLE=Various Artist - Country Stars on CD [CD 2)
DYEAR=2004
DGENRE=Country
TTITLE0=Porter Wagoner - Carroll country accident
TTITLE1=David Allan Coe - The ride
TTITLE2=George Jones - Tammy Wynette - Golden ring
TTITLE3=Conway Twitty - Hello darlin´
TTITLE4=Johnny Cash - On piece at a time
TTITLE5=Claude King - Wolverton mountian
TTITLE6=George Jones - He stopped loving her today
TTITLE7=Mickey Gilley - That´s all that matters to me
TTITLE8=Hawkshaw Hawkins - Lonesome 7-7203
TTITLE9=Sammi Smith - Help me make it through the night
TTITLE10=Waylon Jennings - The eagle
TTITLE11=Barbara Mandrell - The midnight oil
TTITLE12=Porter Wagoner - Wayfaring stranger
TTITLE13=Stadler Brothers - Ruthless
TTITLE14=Terry Tigre - Just out of reach
TTITLE15=Dottie West - I fall to pieces
TTITLE16=Billy Walker - Cross the brazos at waco
TTITLE17=Mac Wiseman - Prisoner´s song
TTITLE18=Red Simpson - I´m a truck
TTITLE19=Bobby Bare - Detroit city
TTITLE20=Leon Ashley - Laura, what´s he got that I ain´t got
EXTD=
EXTT0=
EXTT1=
EXTT2=
EXTT3=
EXTT4=
EXTT5=
EXTT6=
EXTT7=
EXTT8=
EXTT9=
EXTT10=
EXTT11=
EXTT12=
EXTT13=
EXTT14=
EXTT15=
EXTT16=
EXTT17=
EXTT18=
EXTT19=
EXTT20=
PLAYORDER=
